<?xml version="1.0" standalone="no"?>
<!DOCTYPE svg PUBLIC "-//W3C//DTD SVG 20010904//EN"
 "http://www.w3.org/TR/2001/REC-SVG-20010904/DTD/svg10.dtd">
<svg version="1.0" xmlns="http://www.w3.org/2000/svg"
 width="275.000000pt" height="275.000000pt" viewBox="0 0 275.000000 275.000000"
 preserveAspectRatio="xMidYMid meet">
<metadata>
Created by potrace 1.14, written by Peter Selinger 2001-2017
</metadata>
<g transform="translate(0.000000,275.000000) scale(0.100000,-0.100000)"
fill="#000000" stroke="none">
<path d="M1247 2694 c-2 -2 -20 -6 -41 -10 -21 -3 -48 -7 -59 -10 -35 -6 -162
-57 -168 -66 -3 -6 -8 -8 -10 -6 -2 1 -40 -19 -84 -47 -86 -53 -258 -217 -310
-295 -16 -25 -38 -54 -47 -64 -10 -11 -18 -26 -18 -33 0 -7 -4 -13 -9 -13 -5
0 -11 -8 -15 -17 -3 -10 -19 -40 -36 -68 -17 -27 -41 -70 -53 -95 -12 -25 -26
-48 -32 -52 -5 -4 -7 -8 -2 -8 4 0 0 -15 -10 -32 -9 -18 -18 -35 -18 -38 0 -3
-8 -18 -17 -35 -8 -16 -21 -48 -28 -70 -7 -22 -17 -49 -23 -60 -6 -11 -12 -27
-13 -35 -1 -8 -14 -46 -27 -83 -14 -37 -26 -71 -27 -75 0 -4 -10 -36 -20 -71
-11 -34 -22 -73 -24 -85 -2 -11 -12 -50 -21 -86 -9 -36 -19 -74 -21 -85 -2
-11 -11 -55 -20 -98 -9 -44 -17 -93 -20 -110 -2 -18 -6 -43 -8 -57 -5 -24 -9
-57 -22 -180 -11 -111 -12 -204 0 -215 45 -43 203 -138 341 -204 143 -68 140
-67 210 -92 33 -11 67 -23 75 -26 8 -3 24 -8 34 -10 11 -2 25 -8 33 -14 7 -6
13 -9 13 -6 0 3 21 0 47 -8 25 -8 50 -12 55 -9 4 3 8 1 8 -4 0 -5 6 -9 13 -10
14 -1 60 -9 97 -18 14 -3 39 -8 55 -10 17 -2 41 -6 55 -9 23 -5 135 -16 185
-19 11 -1 25 -5 32 -9 6 -4 13 -2 15 5 3 7 9 8 17 3 15 -9 91 -13 91 -5 0 3
24 5 53 6 28 1 72 4 97 7 25 4 68 9 95 13 40 4 131 22 200 38 6 1 26 6 45 10
19 4 55 15 80 23 25 8 50 16 55 17 14 3 105 36 142 52 17 8 33 14 36 14 2 0
25 9 51 20 25 12 49 20 52 20 4 -1 10 2 13 7 11 15 68 43 75 36 3 -3 6 -2 6 3
0 6 16 16 35 24 19 8 35 17 35 22 0 4 4 7 8 6 5 -2 34 14 66 35 32 20 62 37
67 37 5 0 9 5 9 10 0 6 6 10 13 10 20 1 58 38 59 57 1 10 -2 36 -5 58 -9 50
-20 118 -22 125 -1 3 -5 23 -9 45 -4 22 -14 72 -23 110 -8 39 -16 78 -18 88
-10 48 -69 271 -92 347 -14 47 -24 85 -23 85 2 0 -25 74 -40 110 -5 11 -14 38
-21 60 -15 49 -21 67 -48 127 -12 26 -21 52 -21 58 0 22 -132 292 -187 383
-32 52 -109 164 -148 215 -39 52 -191 196 -240 229 -99 66 -216 119 -282 126
-16 2 -33 6 -38 9 -11 6 -242 8 -248 2z m258 -204 c11 -4 38 -13 60 -20 53
-17 129 -52 133 -62 2 -4 8 -8 14 -8 18 0 126 -90 187 -156 85 -93 190 -254
258 -394 50 -103 103 -233 103 -252 0 -10 4 -18 10 -18 5 0 9 -3 8 -7 -1 -5
10 -46 26 -93 38 -116 37 -114 38 -120 0 -3 5 -16 10 -30 5 -14 11 -32 13 -40
2 -8 20 -76 39 -150 19 -74 38 -148 40 -165 7 -37 14 -72 22 -108 3 -16 7 -38
9 -50 9 -60 26 -151 30 -156 7 -12 -22 -38 -95 -88 -61 -41 -230 -135 -250
-139 -3 0 -23 -9 -45 -19 -22 -10 -42 -19 -45 -20 -3 -1 -12 -5 -20 -8 -47
-21 -189 -64 -194 -59 -3 3 -6 0 -6 -7 0 -7 -8 -11 -17 -10 -10 1 -36 -3 -58
-9 -38 -11 -58 -14 -145 -28 -87 -13 -153 -17 -265 -16 -103 0 -210 6 -210 12
0 2 -37 7 -95 14 -19 2 -42 6 -50 9 -8 3 -28 8 -45 11 -33 5 -138 36 -202 59
-22 9 -44 13 -47 10 -3 -4 -6 -1 -6 5 0 7 -8 12 -18 12 -10 0 -27 6 -37 14
-11 8 -25 12 -32 9 -7 -3 -13 1 -13 8 0 7 -3 9 -7 6 -3 -4 -15 0 -25 10 -10 9
-18 13 -18 9 0 -4 -12 1 -28 11 -15 11 -39 24 -54 31 -15 6 -46 23 -70 38 -24
15 -44 27 -46 25 -1 -1 -9 4 -18 11 -8 7 -20 18 -27 23 -7 6 -25 19 -41 29
l-28 18 6 112 c8 133 22 239 62 451 10 56 55 230 64 250 9 20 30 85 34 108 2
7 6 19 9 27 4 8 16 42 28 75 35 97 133 298 184 377 142 219 286 345 480 423
24 10 24 9 100 28 63 15 256 19 290 7z"/>
<path d="M1267 1774 c-1 -1 -56 -5 -122 -8 -198 -12 -240 -19 -312 -52 -98
-44 -173 -133 -188 -224 -12 -69 -13 -78 -20 -180 -3 -52 -7 -104 -9 -115 -2
-11 -1 -24 1 -28 3 -5 7 -45 8 -90 2 -45 7 -93 10 -107 3 -14 8 -43 11 -65 15
-103 124 -210 249 -244 117 -31 456 -45 675 -27 192 16 246 29 317 77 93 63
138 134 148 236 3 34 8 72 11 85 6 27 6 276 0 333 -16 155 -32 203 -89 265
-63 69 -154 112 -265 124 -97 11 -417 26 -425 20z m-186 -338 c115 -58 226
-162 236 -219 5 -36 3 -40 -69 -111 -42 -40 -105 -90 -142 -111 -58 -32 -74
-37 -112 -32 -51 5 -80 27 -87 65 -7 38 6 57 71 98 31 20 69 47 85 60 l28 23
-50 38 c-28 21 -68 50 -89 64 -62 42 -62 102 0 132 45 23 72 21 129 -7z m656
-364 c12 -7 24 -21 28 -32 6 -20 -11 -55 -30 -60 -5 -1 -15 -5 -21 -7 -7 -2
-87 -3 -179 -1 -162 3 -167 4 -186 27 -13 16 -16 27 -9 36 5 6 7 14 5 17 -6 6
38 25 70 30 52 9 302 1 322 -10z"/>
</g>
</svg>
